<svg width="125" height="37" viewBox="0 0 125 37" fill="none" xmlns="http://www.w3.org/2000/svg">
<g clip-path="url(#clip0_803_122)">
<path d="M37.4092 3.01598H45.25V8.24794H48.9966V13.9237H45.25V23.0444C45.25 23.3474 45.3022 23.6031 45.4062 23.8114C45.5103 24.0103 45.6714 24.1618 45.8892 24.266C46.1069 24.3607 46.3862 24.408 46.7271 24.408C46.9639 24.408 47.2388 24.3796 47.5513 24.3228C47.873 24.266 48.1099 24.2186 48.2612 24.1807L49.3975 29.6921C49.0474 29.7963 48.5454 29.9241 47.8921 30.0756C47.248 30.2272 46.481 30.3266 45.5908 30.3739C43.7915 30.4686 42.2812 30.284 41.0596 29.82C39.8379 29.3465 38.9194 28.6031 38.3037 27.5898C37.6885 26.5766 37.3901 25.3076 37.4092 23.783V13.9237H34.625V8.24794H37.4092V3.01598Z" fill="#4EA8DE"/>
<path fill-rule="evenodd" clip-rule="evenodd" d="M56.3579 28.991C58.0439 29.929 60.0699 30.398 62.4379 30.398C64.8059 30.398 66.8309 29.929 68.5169 28.991C70.2029 28.045 71.4949 26.728 72.3949 25.043C73.2949 23.347 73.7449 21.383 73.7449 19.147C73.7449 16.913 73.2949 14.953 72.3949 13.267C71.5202 11.5972 70.1713 10.2233 68.5179 9.318C66.8309 8.37099 64.8049 7.89799 62.4379 7.89799C60.0699 7.89799 58.0439 8.37099 56.3579 9.318C54.7041 10.2231 53.3548 11.597 52.4799 13.267C51.5799 14.953 51.1299 16.913 51.1299 19.148C51.1299 21.383 51.5799 23.348 52.4799 25.043C53.3799 26.728 54.6719 28.044 56.3579 28.991ZM64.2139 23.935C63.7299 24.38 63.1569 24.602 62.4939 24.602C61.7939 24.602 61.1919 24.38 60.6899 23.935C60.1879 23.49 59.8049 22.855 59.5399 22.031C59.2749 21.207 59.1419 20.227 59.1419 19.091C59.1419 17.945 59.2749 16.965 59.5399 16.151C59.8049 15.327 60.1879 14.692 60.6899 14.247C61.1919 13.802 61.7939 13.579 62.4939 13.579C63.132 13.5694 63.7487 13.809 64.2129 14.247C64.6959 14.692 65.0699 15.327 65.3349 16.151C65.5999 16.965 65.7329 17.945 65.7329 19.091C65.7329 20.227 65.5999 21.207 65.3349 22.031C65.0699 22.855 64.6959 23.49 64.2139 23.935Z" fill="#4EA8DE"/>
<path d="M84.7299 30.284C83.2127 30.2944 81.7242 29.8708 80.4399 29.063C79.1429 28.248 78.1009 27.013 77.3149 25.355C76.5389 23.698 76.1509 21.61 76.1509 19.091C76.1509 16.458 76.5579 14.318 77.3719 12.671C78.1959 11.023 79.2569 9.815 80.5539 9.048C81.8609 8.281 83.2339 7.898 84.6739 7.898C85.7529 7.898 86.6999 8.088 87.5139 8.466C88.3289 8.836 89.0099 9.332 89.5599 9.957C90.1089 10.573 90.5259 11.25 90.8099 11.989H90.9229V0.908997H98.7639V30H90.9799V26.42H90.8099C90.5058 27.161 90.062 27.8366 89.5029 28.41C88.9212 29.0028 88.2251 29.4713 87.4569 29.787C86.6619 30.118 85.7529 30.284 84.7299 30.284V30.284ZM87.6279 24.261C88.3479 24.261 88.9629 24.053 89.4749 23.636C89.9949 23.21 90.3929 22.614 90.6679 21.846C90.9519 21.07 91.0939 20.151 91.0939 19.091C91.0939 18.011 90.9519 17.088 90.6679 16.321C90.3929 15.544 89.9949 14.953 89.4739 14.545C88.9639 14.129 88.3479 13.921 87.6279 13.921C86.9079 13.921 86.2929 14.129 85.7809 14.546C85.2789 14.953 84.8909 15.544 84.6159 16.321C84.3509 17.088 84.2189 18.011 84.2189 19.091C84.2189 20.171 84.3509 21.099 84.6169 21.875C84.8909 22.642 85.2789 23.234 85.7809 23.651C86.2929 24.058 86.9079 24.261 87.6279 24.261V24.261ZM113.25 30.398C110.883 30.398 108.856 29.929 107.17 28.991C105.485 28.044 104.192 26.728 103.293 25.043C102.393 23.348 101.943 21.383 101.943 19.148C101.943 16.913 102.393 14.953 103.293 13.268C104.167 11.5977 105.516 10.2234 107.17 9.318C108.856 8.371 110.883 7.898 113.25 7.898C115.617 7.898 117.644 8.371 119.329 9.318C120.983 10.2231 122.332 11.5975 123.207 13.268C124.107 14.953 124.557 16.913 124.557 19.148C124.557 21.383 124.107 23.348 123.207 25.043C122.308 26.728 121.015 28.045 119.329 28.991C117.644 29.929 115.617 30.398 113.25 30.398ZM113.307 24.602C113.97 24.602 114.543 24.38 115.026 23.935C115.508 23.49 115.883 22.855 116.148 22.031C116.413 21.207 116.545 20.227 116.545 19.091C116.545 17.945 116.413 16.965 116.148 16.151C115.883 15.327 115.508 14.692 115.026 14.247C114.562 13.8094 113.945 13.5701 113.307 13.58C112.606 13.58 112.005 13.802 111.503 14.247C111.001 14.692 110.617 15.327 110.352 16.151C110.087 16.965 109.954 17.945 109.954 19.091C109.954 20.227 110.087 21.207 110.352 22.031C110.617 22.855 111.001 23.49 111.503 23.935C112.005 24.38 112.606 24.602 113.307 24.602Z" fill="#5E60CE"/>
<path d="M11.0211 3.933C14.1407 7.88288 15.8117 12.7831 15.7551 17.816V19.014L16.7861 19.642C18.1131 20.4419 19.1072 21.6934 19.5861 23.167C19.1697 22.8601 18.7345 22.5795 18.2831 22.327L15.5331 20.784L15.0391 23.9C14.9962 24.1755 14.9388 24.4486 14.8671 24.718H7.16109C7.04834 24.365 6.95059 24.0073 6.86809 23.646L6.24509 20.826L3.71009 22.236C3.28609 22.473 2.87709 22.734 2.48509 23.019C2.97292 21.5627 3.94625 20.3183 5.24209 19.494L6.22309 18.866V17.752C6.24109 12.752 7.93009 7.895 11.0291 3.933H11.0211V3.933ZM11.0301 1C10.8698 1.00014 10.7148 1.0576 10.5931 1.162L10.5281 1.219C6.39809 5.766 4.10609 11.645 4.08309 17.745C2.33698 18.8554 1.03874 20.5463 0.417091 22.52C-0.197778 24.4845 -0.0913985 26.6039 0.717091 28.497C1.57498 26.6382 2.99845 25.0982 4.78409 24.097C4.96409 24.864 5.20309 25.617 5.50009 26.347C5.53809 26.487 5.62109 26.611 5.73809 26.701C5.85475 26.7903 5.99719 26.8394 6.14409 26.841H16.0841C16.2851 26.841 16.4861 26.65 16.5861 26.354C16.8761 25.659 17.0781 24.932 17.1871 24.189C18.9765 25.1857 20.4015 26.727 21.2551 28.589C22.1122 26.7056 22.2454 24.5724 21.6291 22.597C21.0063 20.6126 19.6821 18.923 17.9041 17.844C17.9741 11.708 15.6941 5.772 11.5161 1.219C11.4534 1.14981 11.3768 1.09456 11.2913 1.05683C11.2059 1.0191 11.1135 0.999744 11.0201 1H11.0281H11.0301Z" fill="#4EA8DE"/>
<path d="M11.0212 17.16C10.4712 17.16 9.93423 17 9.47623 16.699C9.02015 16.4003 8.66305 15.9729 8.45023 15.471C8.23902 14.9721 8.18258 14.4213 8.28823 13.89C8.3947 13.3568 8.65795 12.8676 9.04423 12.485C9.43355 12.0999 9.92725 11.8374 10.4642 11.73C11.0034 11.6214 11.5626 11.6725 12.0732 11.877C12.5832 12.082 13.0192 12.43 13.3272 12.878C13.6362 13.326 13.8032 13.854 13.8072 14.396C13.8162 14.7479 13.7545 15.0981 13.6259 15.4258C13.4972 15.7535 13.3042 16.0521 13.0582 16.304C12.557 16.817 11.8752 17.1137 11.1582 17.131C11.1128 17.1382 11.0666 17.1382 11.0212 17.131V17.16V17.16Z" fill="#4EA8DE"/>
<path d="M14.896 28.596C14.5351 28.5848 14.1845 28.7171 13.921 28.964C13.7926 29.0856 13.6898 29.2317 13.6187 29.3937C13.5476 29.5556 13.5096 29.7302 13.507 29.907V34.067C13.507 34.43 13.653 34.777 13.914 35.034C14.1759 35.2917 14.5286 35.4362 14.896 35.4362C15.2634 35.4362 15.6161 35.2917 15.878 35.034C16.138 34.778 16.285 34.43 16.285 34.067V29.964C16.2912 29.7875 16.2615 29.6116 16.1977 29.447C16.134 29.2823 16.0374 29.1323 15.914 29.006C15.7901 28.8779 15.6419 28.7756 15.4782 28.7052C15.3144 28.6348 15.1383 28.5977 14.96 28.596H14.896V28.596ZM7.162 28.596C6.98017 28.5867 6.79828 28.6134 6.62683 28.6747C6.45537 28.7359 6.29774 28.8305 6.163 28.953C6.03027 29.0747 5.92343 29.2219 5.84886 29.3858C5.7743 29.5497 5.73353 29.727 5.729 29.907V34.067C5.729 34.43 5.876 34.777 6.136 35.034C6.39793 35.292 6.75084 35.4367 7.1185 35.4367C7.48617 35.4367 7.83908 35.292 8.101 35.034C8.361 34.778 8.508 34.43 8.508 34.067V29.964C8.51408 29.7875 8.48434 29.6117 8.42058 29.447C8.35681 29.2824 8.26035 29.1324 8.137 29.006C8.01306 28.8779 7.8649 28.7757 7.70113 28.7053C7.53736 28.6349 7.36125 28.5978 7.183 28.596H7.162V28.596ZM10.921 28.596C10.5615 28.5887 10.2134 28.7222 9.951 28.968C9.82266 29.0893 9.71957 29.2349 9.64766 29.3962C9.57576 29.5575 9.53645 29.7314 9.532 29.908V35.639C9.532 36.002 9.678 36.349 9.939 36.606C10.2009 36.864 10.5538 37.0087 10.9215 37.0087C11.2892 37.0087 11.6421 36.864 11.904 36.606C12.164 36.35 12.311 36.002 12.311 35.639V30C12.317 29.8236 12.2871 29.6479 12.2232 29.4834C12.1592 29.3189 12.0625 29.169 11.939 29.043C11.8152 28.9149 11.6673 28.8126 11.5037 28.742C11.3401 28.6715 11.1641 28.6341 10.986 28.632L10.921 28.597V28.596Z" fill="#5E60CE"/>
</g>
<defs>
<clipPath id="clip0_803_122">
<rect width="125" height="37" fill="white"/>
</clipPath>
</defs>
</svg>
